<svg id="Layer_1" data-name="Layer 1" xmlns="http://www.w3.org/2000/svg" viewBox="0 0 792.75 266.18"><defs><style>.cls-1{font-size:182.8px;fill:#89d1da;font-family:CooperBlack, Cooper Black;}.cls-2{fill:none;stroke:#9e866a;stroke-miterlimit:10;stroke-width:3px;}.cls-3{fill:#f8da94;}.cls-4{fill:#fcf49c;}.cls-5{fill:#49bc94;}.cls-6{fill:#f4d39d;}.cls-7{fill:#f15d5c;}.cls-8{fill:#a4dce2;}</style></defs><text class="cls-1" transform="translate(0 153.3)">SKYE</text><path class="cls-2" d="M533,300.47c1.71,6.29,6,29.77,24,19.42,16.69-9.63,56-40.2,65.63-49.34" transform="translate(-27.6 -167.33)"/><path class="cls-3" d="M156.65,342.05a30,30,0,0,1,18.77,6.14,31.7,31.7,0,0,1,8.82,11,29.94,29.94,0,0,1,3.3,13.37A26.7,26.7,0,0,1,181,390.16a30.61,30.61,0,0,1-14.42,9.48,35.81,35.81,0,0,1-11,1.76,33,33,0,0,1-13.84-3,27.84,27.84,0,0,1-12.49-11,29.16,29.16,0,0,1-4.39-15.67,28.68,28.68,0,0,1,5.64-17.55,29,29,0,0,1,13.5-9.95A35.29,35.29,0,0,1,156.65,342.05Z" transform="translate(-27.6 -167.33)"/><path class="cls-4" d="M149.37,336.33c-3.22-.53,6.74-25.13,9.94-24.77,1.91.22,7.06,23.89,1.19,25.16C156.21,337.66,153,336.91,149.37,336.33Z" transform="translate(-27.6 -167.33)"/><path class="cls-3" d="M151.29,335.64c-3.85-2,5-17.73,7.27-17.83,2.56-.12,5.93,17.54.67,18.57C156.78,336.86,153.3,336.7,151.29,335.64Z" transform="translate(-27.6 -167.33)"/><path class="cls-4" d="M168.36,337.88c-2.53-2.07,18.4-18.39,21-16.49,1.55,1.15-5.82,24.22-11.54,22.39C173.62,342.45,171.16,340.17,168.36,337.88Z" transform="translate(-27.6 -167.33)"/><path class="cls-3" d="M170.37,338.24c-2.32-3.69,13.2-12.85,15.21-11.81,2.28,1.17-3.64,18.16-8.71,16.42C174.51,342,171.58,340.16,170.37,338.24Z" transform="translate(-27.6 -167.33)"/><path class="cls-4" d="M184,348.71c-1.16-3.06,25.13-6.73,26.42-3.78.77,1.77-17.15,18.06-21.19,13.62C186.3,355.3,185.31,352.09,184,348.71Z" transform="translate(-27.6 -167.33)"/><path class="cls-3" d="M185.59,350c-.17-4.35,17.86-4.52,19.08-2.62,1.38,2.16-12.23,13.91-15.76,9.87C187.27,355.39,185.68,352.3,185.59,350Z" transform="translate(-27.6 -167.33)"/><path class="cls-4" d="M192.19,365.92c.52-3.22,25.13,6.75,24.77,9.94-.22,1.92-23.89,7.07-25.16,1.2C190.86,372.77,191.61,369.5,192.19,365.92Z" transform="translate(-27.6 -167.33)"/><path class="cls-3" d="M192.88,367.84c2-3.85,17.73,5,17.83,7.27.12,2.56-17.55,5.93-18.58.67C191.66,373.33,191.82,369.86,192.88,367.84Z" transform="translate(-27.6 -167.33)"/><path class="cls-4" d="M190.64,384.91c2.07-2.53,18.39,18.4,16.49,21-1.15,1.55-24.22-5.82-22.39-11.54C186.07,390.17,188.35,387.72,190.64,384.91Z" transform="translate(-27.6 -167.33)"/><path class="cls-3" d="M190.28,386.92c3.69-2.32,12.85,13.21,11.81,15.21-1.17,2.28-18.16-3.64-16.42-8.71C186.48,391.06,188.36,388.13,190.28,386.92Z" transform="translate(-27.6 -167.33)"/><path class="cls-4" d="M179.81,400.58c3.06-1.15,6.73,25.14,3.78,26.42-1.77.78-18.06-17.15-13.62-21.19C173.22,402.86,176.42,401.87,179.81,400.58Z" transform="translate(-27.6 -167.33)"/><path class="cls-3" d="M178.5,402.14c4.35-.16,4.52,17.86,2.62,19.08-2.16,1.39-13.91-12.23-9.87-15.75C173.13,403.83,176.22,402.23,178.5,402.14Z" transform="translate(-27.6 -167.33)"/><path class="cls-4" d="M162.6,408.74c3.22.53-6.75,25.13-9.94,24.77-1.92-.21-7.07-23.88-1.2-25.16C155.75,407.41,159,408.16,162.6,408.74Z" transform="translate(-27.6 -167.33)"/><path class="cls-3" d="M160.68,409.43c3.85,2-5,17.73-7.27,17.84-2.56.12-5.93-17.55-.67-18.58C155.19,408.21,158.66,408.37,160.68,409.43Z" transform="translate(-27.6 -167.33)"/><path class="cls-4" d="M143.61,407.2c2.53,2.07-18.41,18.39-21,16.48-1.56-1.14,5.82-24.22,11.54-22.39C138.35,402.63,140.8,404.9,143.61,407.2Z" transform="translate(-27.6 -167.33)"/><path class="cls-3" d="M141.6,406.84c2.32,3.68-13.21,12.84-15.21,11.81-2.28-1.18,3.64-18.17,8.71-16.43C137.46,403,140.39,404.91,141.6,406.84Z" transform="translate(-27.6 -167.33)"/><path class="cls-4" d="M127.93,396.36c1.16,3.06-25.13,6.73-26.42,3.78-.77-1.76,17.16-18.06,21.2-13.61C125.66,389.78,126.65,393,127.93,396.36Z" transform="translate(-27.6 -167.33)"/><path class="cls-3" d="M126.38,395.05c.16,4.35-17.86,4.52-19.08,2.62-1.39-2.16,12.23-13.91,15.75-9.87C124.69,389.69,126.29,392.78,126.38,395.05Z" transform="translate(-27.6 -167.33)"/><path class="cls-4" d="M119.78,379.15c-.53,3.22-25.13-6.74-24.77-9.94.21-1.91,23.88-7.06,25.16-1.19C121.11,372.31,120.36,375.57,119.78,379.15Z" transform="translate(-27.6 -167.33)"/><path class="cls-3" d="M119.09,377.23c-2,3.85-17.73-5-17.84-7.27-.12-2.56,17.55-5.93,18.58-.67C120.31,371.74,120.15,375.22,119.09,377.23Z" transform="translate(-27.6 -167.33)"/><path class="cls-4" d="M121.32,360.16c-2.07,2.53-18.39-18.4-16.48-21,1.14-1.55,24.22,5.82,22.39,11.54C125.89,354.9,123.62,357.36,121.32,360.16Z" transform="translate(-27.6 -167.33)"/><path class="cls-3" d="M121.68,358.15c-3.68,2.32-12.84-13.2-11.81-15.21,1.18-2.28,18.17,3.64,16.43,8.71C125.49,354,123.61,356.94,121.68,358.15Z" transform="translate(-27.6 -167.33)"/><path class="cls-4" d="M132.15,344.49c-3.05,1.16-6.72-25.13-3.77-26.42,1.76-.77,18.06,17.15,13.61,21.19C138.74,342.22,135.54,343.2,132.15,344.49Z" transform="translate(-27.6 -167.33)"/><path class="cls-3" d="M133.47,342.93c-4.35.17-4.52-17.86-2.62-19.08,2.16-1.38,13.91,12.23,9.87,15.76C138.83,341.25,135.74,342.84,133.47,342.93Z" transform="translate(-27.6 -167.33)"/><path class="cls-4" d="M149.37,336.33c-3.22-.53,6.74-25.13,9.94-24.77,1.91.22,7.06,23.89,1.19,25.16C156.21,337.66,153,336.91,149.37,336.33Z" transform="translate(-27.6 -167.33)"/><path class="cls-3" d="M151.29,335.64c-3.85-2,5-17.73,7.27-17.83,2.56-.12,5.93,17.54.67,18.57C156.78,336.86,153.3,336.7,151.29,335.64Z" transform="translate(-27.6 -167.33)"/><path class="cls-5" d="M69.76,335.26a45.81,45.81,0,0,1,12.74,2.41A6,6,0,0,0,84,338a14.18,14.18,0,0,0,2.83-.85,4.51,4.51,0,0,1,1.61-.28c2.1,0,4.33,1.66,6.68,5s3.51,6.52,3.51,9.54a6.53,6.53,0,0,1-1.58,4.46,4.92,4.92,0,0,1-3.85,1.82,5.59,5.59,0,0,1-3.07-.76A55.51,55.51,0,0,1,85,352.4q-5.67-5.29-11.14-5.29a6.51,6.51,0,0,0-4.23,1.28A4.1,4.1,0,0,0,68,351.74q0,4.11,7.22,6.18a104,104,0,0,1,12.52,4.21q12,5.85,12,17.23a19.88,19.88,0,0,1-8.22,16.43q-8.4,6.51-21.95,6.52a60.16,60.16,0,0,1-12.75-1.45q-6.7-1.44-9.68-3.37Q44.93,396,43.1,390.9A29.25,29.25,0,0,1,41.29,381a5.48,5.48,0,0,1,.94-3.49,3.64,3.64,0,0,1,3-1.52,4.69,4.69,0,0,1,3.44,1.85,68.94,68.94,0,0,1,4.68,6.66,12.83,12.83,0,0,0,5.55,4.39,18.66,18.66,0,0,0,7.86,1.74,11,11,0,0,0,5.66-1.29A3.84,3.84,0,0,0,74.58,386a4,4,0,0,0-1.71-3.25,17,17,0,0,0-5.52-2.55,74.16,74.16,0,0,1-10.29-3.9,31.08,31.08,0,0,1-6.61-4.46q-7.47-6.6-7.46-15a18.19,18.19,0,0,1,1.93-8.1,20.19,20.19,0,0,1,5.48-6.82Q58.33,335.26,69.76,335.26Z" transform="translate(-27.6 -167.33)"/><path class="cls-5" d="M260.05,381.46l-5.66,12.7a22.76,22.76,0,0,1-2.37,4.32,2.57,2.57,0,0,1-2,1.11,2.41,2.41,0,0,1-1.84-.9,30,30,0,0,1-2.39-4.16q-1.86-3.58-3.09-6.37l-6.23-14c-.85-2-1.75-2.93-2.69-2.93s-1.56.84-1.65,2.5q-.33,5.58-.33,10.3a30.19,30.19,0,0,0,.47,6.66,3.23,3.23,0,0,0,.87,1.5,19.06,19.06,0,0,0,3,1.7,2.88,2.88,0,0,1,1.56,2.79q0,5.29-13.55,5.29-11.43,0-11.43-5.15a2.63,2.63,0,0,1,.59-1.91,13.54,13.54,0,0,1,3.05-1.77,4,4,0,0,0,2.1-1.94,18.52,18.52,0,0,0,.92-4.77q.42-3.78.8-12.39t.38-14.75c0-5.14-.39-8.61-1.18-10.44a4,4,0,0,0-1-1.42,10.77,10.77,0,0,0-2-1.22c-2.23-1.07-3.35-2.46-3.35-4.15a4.36,4.36,0,0,1,1.25-3,6.82,6.82,0,0,1,3.33-1.94A37,37,0,0,1,223.1,336a47.1,47.1,0,0,1,5.88-.45q6,0,8.55,1a4.91,4.91,0,0,1,1.94,1.28,20.51,20.51,0,0,1,2,3.31l9.82,18.07a23,23,0,0,0,2.21,3.64,2.18,2.18,0,0,0,1.7.66,2.32,2.32,0,0,0,1.68-.71,10.88,10.88,0,0,0,1.73-2.63l6.65-13,1.61-3.25c1.54-3.15,3.06-5.24,4.58-6.28q2.88-2,10.48-2,13.35,0,13.36,6.09a4,4,0,0,1-.52,2.19,8.29,8.29,0,0,1-2.12,2,7.34,7.34,0,0,0-2.74,4.77,97.71,97.71,0,0,0-1.09,15.86A171.22,171.22,0,0,0,290,387.64a6.85,6.85,0,0,0,.87,3,13.66,13.66,0,0,0,3,2.4,3.46,3.46,0,0,1,1.7,3c0,2.21-1.46,3.76-4.39,4.68a21.71,21.71,0,0,1-4.77,1c-1.66.16-4.23.23-7.69.23q-8,0-11.9-1.13c-2.9-.84-4.34-2.3-4.34-4.34a3,3,0,0,1,.56-1.87A23.38,23.38,0,0,1,266,392a6.06,6.06,0,0,0,1.68-3.83,70.64,70.64,0,0,0,.44-9.63,21.38,21.38,0,0,0-.35-5,1.45,1.45,0,0,0-1.49-1.18c-.88,0-1.73.61-2.55,1.82A58,58,0,0,0,260.05,381.46Z" transform="translate(-27.6 -167.33)"/><path class="cls-5" d="M345.51,381.46l-5.66,12.7a23.48,23.48,0,0,1-2.36,4.32,2.6,2.6,0,0,1-2,1.11,2.41,2.41,0,0,1-1.84-.9,29.34,29.34,0,0,1-2.38-4.16q-1.87-3.58-3.1-6.37l-6.23-14c-.85-2-1.75-2.93-2.69-2.93s-1.56.84-1.65,2.5q-.33,5.58-.33,10.3a30.19,30.19,0,0,0,.47,6.66,3.23,3.23,0,0,0,.87,1.5,19.06,19.06,0,0,0,2.95,1.7,2.88,2.88,0,0,1,1.56,2.79q0,5.29-13.55,5.29-11.43,0-11.43-5.15a2.63,2.63,0,0,1,.59-1.91,13.54,13.54,0,0,1,3.05-1.77,4,4,0,0,0,2.1-1.94,18.52,18.52,0,0,0,.92-4.77q.44-3.78.8-12.39t.38-14.75c0-5.14-.39-8.61-1.18-10.44a4,4,0,0,0-1-1.42,10.77,10.77,0,0,0-2-1.22c-2.23-1.07-3.35-2.46-3.35-4.15a4.36,4.36,0,0,1,1.25-3,6.82,6.82,0,0,1,3.33-1.94,37,37,0,0,1,5.54-1.06,47.1,47.1,0,0,1,5.88-.45q6,0,8.55,1a4.91,4.91,0,0,1,1.94,1.28,19.8,19.8,0,0,1,2,3.31l9.82,18.07a23.87,23.87,0,0,0,2.21,3.64,2.19,2.19,0,0,0,1.71.66,2.32,2.32,0,0,0,1.67-.71,10.88,10.88,0,0,0,1.73-2.63l6.65-13,1.61-3.25q2.31-4.73,4.58-6.28,2.88-2,10.48-2,13.36,0,13.36,6.09a4,4,0,0,1-.52,2.19,8.12,8.12,0,0,1-2.12,2,7.38,7.38,0,0,0-2.74,4.77,97.71,97.71,0,0,0-1.09,15.86,171.22,171.22,0,0,0,1.14,21.11,6.85,6.85,0,0,0,.87,3,13.54,13.54,0,0,0,3.05,2.4,3.47,3.47,0,0,1,1.69,3c0,2.21-1.46,3.76-4.39,4.68a21.75,21.75,0,0,1-4.76,1c-1.67.16-4.24.23-7.7.23q-8,0-11.9-1.13c-2.9-.84-4.34-2.3-4.34-4.34a3,3,0,0,1,.56-1.87,23.38,23.38,0,0,1,2.93-2.66,6.06,6.06,0,0,0,1.68-3.83,70.19,70.19,0,0,0,.45-9.63,21.19,21.19,0,0,0-.36-5,1.45,1.45,0,0,0-1.49-1.18c-.88,0-1.73.61-2.55,1.82A58,58,0,0,0,345.51,381.46Z" transform="translate(-27.6 -167.33)"/><path class="cls-5" d="M394,336.55h24.27q7.37,0,10.74-.31A33.21,33.21,0,0,0,435.6,335a6.34,6.34,0,0,1,1.56-.27c1.63,0,3.08.87,4.34,2.64a17.18,17.18,0,0,1,3.12,10.39,8,8,0,0,1-1.3,4.84,4.18,4.18,0,0,1-3.57,1.76,4.12,4.12,0,0,1-2.43-.63,11.85,11.85,0,0,1-2.33-2.86,10.17,10.17,0,0,0-5.27-4.23q-3.18-1.06-10.46-1.06-5.43,0-6.61,1.94a6.3,6.3,0,0,0-.73,2.78q-.12,1.75-.12,8.92c0,1.9.32,3.07.95,3.52s2.28.69,5,.69a4.13,4.13,0,0,0,2.88-.83,4.67,4.67,0,0,0,1.13-2.95,21.25,21.25,0,0,1,.68-3.75,3.9,3.9,0,0,1,1.3-1.77,3.43,3.43,0,0,1,2.32-.85,4,4,0,0,1,3.3,1.84A13.1,13.1,0,0,1,431,360a37.87,37.87,0,0,1,.68,7.25,28.14,28.14,0,0,1-2.31,12.23,4.12,4.12,0,0,1-3.88,2.59,2.6,2.6,0,0,1-2.21-.82,8.14,8.14,0,0,1-.95-3.43c-.47-3.56-2.55-5.33-6.23-5.33a3.08,3.08,0,0,0-2.91,1.35c-.51.89-.77,2.55-.77,5q0,2.22.3,5.73a30.19,30.19,0,0,0,.64,4.65,3,3,0,0,0,2.34,2,28,28,0,0,0,6.54.54q7.08,0,10.67-1.83a13.39,13.39,0,0,0,5.85-6.58,12.36,12.36,0,0,1,2.39-3.68,4.2,4.2,0,0,1,6,.78,7,7,0,0,1,1.3,4.32,22.63,22.63,0,0,1-1.47,7.08,35,35,0,0,1-3.58,7.55,9.62,9.62,0,0,1-1.8,2.15,2.87,2.87,0,0,1-1.79.54,16.85,16.85,0,0,1-2.6-.28,52.88,52.88,0,0,0-8.07-.71h-40a5.81,5.81,0,0,1-3.73-1.06,3.62,3.62,0,0,1-1.32-3,2.91,2.91,0,0,1,.56-2,9.4,9.4,0,0,1,2.6-1.56,5,5,0,0,0,2.1-1.51,6.67,6.67,0,0,0,1.06-2.64A93.86,93.86,0,0,0,392,370q0-18.22-2.26-23a3.48,3.48,0,0,0-1-1.33,10.46,10.46,0,0,0-2.36-.89,3.43,3.43,0,0,1-2.7-3.59,4.3,4.3,0,0,1,.9-2.69,4.2,4.2,0,0,1,2.36-1.56A37.63,37.63,0,0,1,394,336.55Z" transform="translate(-27.6 -167.33)"/><path class="cls-5" d="M481.92,373.9c-1.2,0-2,.37-2.29,1.09a15.42,15.42,0,0,0-.5,5.05,44.18,44.18,0,0,0,.76,9.34,3.26,3.26,0,0,0,.7,1.47,8.12,8.12,0,0,0,1.8,1.28c1.89,1,2.83,2.4,2.83,4.1q0,3.12-3.94,4.42T467.94,402q-17.46,0-17.47-6.61a3,3,0,0,1,.52-1.82,11,11,0,0,1,2.36-1.91,7,7,0,0,0,2.81-3.24,23.59,23.59,0,0,0,1-6.44q.22-3.36.23-24a39.35,39.35,0,0,0-.66-8.93,5.26,5.26,0,0,0-2.83-3.44,8.78,8.78,0,0,1-2.79-1.82,3.2,3.2,0,0,1-.71-2.15,4.08,4.08,0,0,1,1.35-3,8.22,8.22,0,0,1,3.75-1.92,23.92,23.92,0,0,1,5.57-.52q1.56,0,7.8.47c.78.07,2,.1,3.73.1q4.25,0,11.33-.57,4.49-.33,6.28-.33,10.09,0,16.71,4.86a14.29,14.29,0,0,1,5.95,12.18,15.35,15.35,0,0,1-2.08,7.91,13.24,13.24,0,0,1-5.71,5.36c-1,.5-1.51,1.1-1.51,1.8q0,1.36,2.31,2.22a13.77,13.77,0,0,1,7.27,5.43q2.33,3.63,3.31,11.14c.28,2.08.69,3.42,1.23,4a8.48,8.48,0,0,0,3.73,1.77,2.84,2.84,0,0,1,1.51,1.2,3.64,3.64,0,0,1,.61,2.06,4.85,4.85,0,0,1-1.13,2.95A7.77,7.77,0,0,1,519.5,401q-4,1.85-10.86,1.85-9.21,0-13.17-4.86a19.43,19.43,0,0,1-3.05-5.49,97.64,97.64,0,0,1-2.95-10.29q-1.08-4.48-2.76-6.33A6.64,6.64,0,0,0,481.92,373.9Zm-2.74-24.08-.52,11v.42a3.55,3.55,0,0,0,.5,2.27,2.62,2.62,0,0,0,2,.57c2.77,0,4.79-.71,6-2.15s1.88-3.72,1.88-6.87q0-9.1-6.47-9.11a3.32,3.32,0,0,0-2.59.85A4.94,4.94,0,0,0,479.18,349.82Z" transform="translate(-27.6 -167.33)"/><path class="cls-5" d="M559.49,335.23a31,31,0,0,1,13.32,3,12.19,12.19,0,0,0,4.2,1.42,14.34,14.34,0,0,0,2.74-.42,5.77,5.77,0,0,1,1.37-.14,5.41,5.41,0,0,1,4.29,2.26A20.59,20.59,0,0,1,590,355q0,5.71-3.92,8.36a8.45,8.45,0,0,1-4.77,1.41,6.72,6.72,0,0,1-3.92-1,10.31,10.31,0,0,1-2.93-3.68,42.36,42.36,0,0,0-3.3-5.36,14.93,14.93,0,0,0-3.12-3,16.45,16.45,0,0,0-9.58-3.21,9.42,9.42,0,0,0-7.72,3.51q-2.87,3.53-2.86,9.43a28.05,28.05,0,0,0,4.11,14.87q5.56,9,16,9a23.37,23.37,0,0,0,7.57-1.28,15.29,15.29,0,0,0,5.84-3.3c1.19-1.14,2.17-1.7,2.92-1.7a3.48,3.48,0,0,1,2.83,1.53,5.91,5.91,0,0,1,1.19,3.71,14.18,14.18,0,0,1-1.66,6.14,15.8,15.8,0,0,1-4,5.33,10.33,10.33,0,0,1-4.11,1.42,20.93,20.93,0,0,0-4.77,1.75,33.31,33.31,0,0,1-14.54,3.35,37.88,37.88,0,0,1-15.72-3.55,33.66,33.66,0,0,1-19.6-29.88,31,31,0,0,1,6.52-19.12,36.19,36.19,0,0,1,14.78-11.48A35.51,35.51,0,0,1,559.49,335.23Z" transform="translate(-27.6 -167.33)"/><path class="cls-5" d="M653,368.38,662,387.5a13.77,13.77,0,0,0,2.12,3.47,4.75,4.75,0,0,0,2.6,1.11c2.27.35,3.4,1.49,3.4,3.45q0,3.45-4.15,5t-13.6,1.5a100.57,100.57,0,0,1-15.82-.9,7,7,0,0,1-3.75-1.72,4.13,4.13,0,0,1-1.4-3.14,3.07,3.07,0,0,1,.74-2.19,6.65,6.65,0,0,1,2.71-1.44c1.48-.5,2.22-1.36,2.22-2.55q0-3.17-3.83-3.73a89.37,89.37,0,0,0-11.56-.57c-4.19,0-6.69.26-7.51.76a3.82,3.82,0,0,0-1.32,1.7,5.59,5.59,0,0,0-.57,2.36c0,.7.13,1.14.4,1.35a12.84,12.84,0,0,0,2.62,1q2.88.85,2.88,3.4,0,5.63-13.45,5.62-7.65,0-11.24-1a4.18,4.18,0,0,1-3.31-4.35,3.22,3.22,0,0,1,.74-2.26,6.35,6.35,0,0,1,2.62-1.46,10.31,10.31,0,0,0,4.65-3,46.68,46.68,0,0,0,4.51-8.38l6.65-14.59a114.6,114.6,0,0,0,4.94-12,27.58,27.58,0,0,0,1.3-7.81,24.77,24.77,0,0,1,.49-5.64,7.11,7.11,0,0,1,2-3.1,11.17,11.17,0,0,1,8.31-3.3,13.82,13.82,0,0,1,9.11,3.73Q641.51,343.78,653,368.38Zm-32.87,5.95h9.26q2.55,0,2.55-1.14c0-1-1.19-3.59-3.54-7.65a24.2,24.2,0,0,0-2.46-3.72,2.45,2.45,0,0,0-1.79-.95c-1.14,0-2.08,1.06-2.84,3.16-.12.29-.58,1.4-1.37,3.36q-2,4.82-2,5.76C618,373.94,618.72,374.33,620.16,374.33Z" transform="translate(-27.6 -167.33)"/><path class="cls-5" d="M718.7,381.46,713,394.16a22.76,22.76,0,0,1-2.37,4.32,2.57,2.57,0,0,1-2,1.11,2.41,2.41,0,0,1-1.84-.9,30,30,0,0,1-2.39-4.16q-1.86-3.58-3.09-6.37l-6.23-14c-.85-2-1.75-2.93-2.69-2.93s-1.56.84-1.66,2.5q-.31,5.58-.32,10.3a30.19,30.19,0,0,0,.47,6.66,3.23,3.23,0,0,0,.87,1.5,19.06,19.06,0,0,0,3,1.7,2.88,2.88,0,0,1,1.56,2.79q0,5.29-13.55,5.29-11.43,0-11.43-5.15a2.63,2.63,0,0,1,.59-1.91,13.54,13.54,0,0,1,3.05-1.77,4,4,0,0,0,2.1-1.94,18.52,18.52,0,0,0,.92-4.77q.42-3.78.8-12.39t.38-14.75c0-5.14-.39-8.61-1.18-10.44a4.1,4.1,0,0,0-1-1.42,10.77,10.77,0,0,0-2-1.22c-2.24-1.07-3.35-2.46-3.35-4.15a4.36,4.36,0,0,1,1.25-3,6.82,6.82,0,0,1,3.33-1.94,37,37,0,0,1,5.54-1.06,47.1,47.1,0,0,1,5.88-.45q6,0,8.55,1a4.91,4.91,0,0,1,1.94,1.28,20.51,20.51,0,0,1,2,3.31L710,359.21a22.27,22.27,0,0,0,2.21,3.64,2.18,2.18,0,0,0,1.7.66,2.32,2.32,0,0,0,1.68-.71,10.62,10.62,0,0,0,1.72-2.63l6.66-13c.82-1.66,1.35-2.75,1.61-3.25,1.54-3.15,3.06-5.24,4.58-6.28q2.88-2,10.48-2,13.35,0,13.36,6.09a4,4,0,0,1-.52,2.19,8.29,8.29,0,0,1-2.12,2,7.34,7.34,0,0,0-2.74,4.77,97.71,97.71,0,0,0-1.09,15.86,171.22,171.22,0,0,0,1.14,21.11,6.85,6.85,0,0,0,.87,3,13.66,13.66,0,0,0,3,2.4,3.46,3.46,0,0,1,1.7,3c0,2.21-1.46,3.76-4.39,4.68a21.71,21.71,0,0,1-4.77,1c-1.67.16-4.23.23-7.69.23q-8,0-11.9-1.13c-2.9-.84-4.35-2.3-4.35-4.34a3,3,0,0,1,.57-1.87,23.38,23.38,0,0,1,2.93-2.66,6.06,6.06,0,0,0,1.68-3.83,72.35,72.35,0,0,0,.44-9.63,21.38,21.38,0,0,0-.35-5,1.45,1.45,0,0,0-1.49-1.18c-.88,0-1.73.61-2.55,1.82A58,58,0,0,0,718.7,381.46Z" transform="translate(-27.6 -167.33)"/><path class="cls-5" d="M765.3,378.77V353.93q0-4.81-.66-6.11c-.44-.87-1.63-1.57-3.59-2.11q-4.24-1.21-4.25-4.25a3.62,3.62,0,0,1,1.8-3.25,9.72,9.72,0,0,1,5.19-1.14c.76,0,2.63.05,5.62.15h2.83q7.85-.06,9.19-.12c.89-.05,4.1-.32,9.61-.83a48.42,48.42,0,0,1,5-.28,29.41,29.41,0,0,1,13.79,3.16q10.53,5.48,10.52,17.38A18.69,18.69,0,0,1,813,372a26.46,26.46,0,0,1-16.81,5.43c-1.67,0-3.71-.11-6.14-.33q-1.93-.15-2.4-.15c-.92,0-1.37.52-1.37,1.56v.29l.33,7.74a6.74,6.74,0,0,0,.82,3.38,8.08,8.08,0,0,0,3,2.28q3.08,1.65,3.07,3.59,0,3-4.53,4.59c-3,1.06-7.3,1.6-12.85,1.6q-17.46,0-17.46-6a2.93,2.93,0,0,1,.75-2.17,15.73,15.73,0,0,1,3.54-2.17,3.47,3.47,0,0,0,2-2.5Q765.22,387.51,765.3,378.77Zm21.3-30.84V364c0,1.22.26,2,.8,2.22a9,9,0,0,0,8.69-1.09c2-1.67,3.07-4.47,3.07-8.41s-1.2-7-3.59-8.87a8.68,8.68,0,0,0-5.48-1.74C787.76,346.1,786.6,346.7,786.6,347.93Z" transform="translate(-27.6 -167.33)"/><path class="cls-6" d="M757.94,291l-136-22.9a2.16,2.16,0,0,0-2.43,3l11.1,30.47c11.45,21.37,40.1,16.84,58.06,17.86H798.65a6.23,6.23,0,0,0,6.71-5.72l.88-9.94a4.82,4.82,0,0,0-4.08-4.92Z" transform="translate(-27.6 -167.33)"/><path class="cls-7" d="M806.24,301.55,619.61,269.23a1.94,1.94,0,0,0-.25.86,5.31,5.31,0,0,0,.15,1.65c.46,1.49,1.34,2.8,1.84,4.28l1.83,5,183.06,22.71Z" transform="translate(-27.6 -167.33)"/><polygon class="cls-7" points="778.42 140.43 597.56 119.15 601.05 128.73 778.33 142.23 778.42 140.43"/><path class="cls-4" d="M676.24,250.57l4.6,1.65,77.1,38.8-106-17.86a5.7,5.7,0,0,0,.86-.84c7.66-11.28,11.44-13.22,23.47-21.75" transform="translate(-27.6 -167.33)"/><polygon class="cls-8" points="725.6 121.94 691.57 105.31 688.71 115.81 725.6 121.94"/><polygon class="cls-8" points="690.65 104.63 662.44 90.83 654.57 110.17 687.48 115.62 690.65 104.63"/><path class="cls-8" d="M688.71,257.28l-7.87,19.45-28.07-4.41c2.72-4.49,5.84-9.06,10.49-12.75a127,127,0,0,1,12.22-8.43Z" transform="translate(-27.6 -167.33)"/></svg>